<svg 
 xmlns="http://www.w3.org/2000/svg"
 xmlns:xlink="http://www.w3.org/1999/xlink"
 width="18px" height="18px">
<defs>
<filter id="Filter_0">
    <feFlood flood-color="rgb(140, 152, 157)" flood-opacity="1" result="floodOut" />
    <feComposite operator="atop" in="floodOut" in2="SourceGraphic" result="compOut" />
    <feBlend mode="normal" in="compOut" in2="SourceGraphic" />
</filter>

</defs>
<g filter="url(#Filter_0)">
<path fill-rule="evenodd"  fill="rgb(0, 0, 0)"
 d="M16.071,18.000 L1.929,18.000 C0.863,18.000 -0.000,17.137 -0.000,16.071 L-0.000,3.857 C-0.000,2.792 0.863,1.929 1.929,1.929 L3.857,1.929 L3.857,4.500 C3.857,4.855 4.145,5.143 4.500,5.143 C4.855,5.143 5.143,4.855 5.143,4.500 L5.143,1.929 L12.857,1.929 L12.857,4.500 C12.857,4.855 13.145,5.143 13.500,5.143 C13.855,5.143 14.143,4.855 14.143,4.500 L14.143,1.929 L16.071,1.929 C17.137,1.929 18.000,2.792 18.000,3.857 L18.000,16.071 C18.000,17.137 17.137,18.000 16.071,18.000 ZM16.714,7.714 L1.286,7.714 L1.286,16.071 C1.286,16.426 1.574,16.714 1.929,16.714 L16.071,16.714 C16.426,16.714 16.714,16.426 16.714,16.071 L16.714,7.714 ZM14.143,15.429 L12.857,15.429 C12.502,15.429 12.214,15.141 12.214,14.786 C12.214,14.431 12.502,14.143 12.857,14.143 L14.143,14.143 C14.498,14.143 14.786,14.431 14.786,14.786 C14.786,15.141 14.498,15.429 14.143,15.429 ZM14.143,12.857 L12.857,12.857 C12.502,12.857 12.214,12.569 12.214,12.214 C12.214,11.859 12.502,11.571 12.857,11.571 L14.143,11.571 C14.498,11.571 14.786,11.859 14.786,12.214 C14.786,12.569 14.498,12.857 14.143,12.857 ZM14.143,10.286 L12.857,10.286 C12.502,10.286 12.214,9.998 12.214,9.643 C12.214,9.288 12.502,9.000 12.857,9.000 L14.143,9.000 C14.498,9.000 14.786,9.288 14.786,9.643 C14.786,9.998 14.498,10.286 14.143,10.286 ZM9.643,15.429 L8.357,15.429 C8.002,15.429 7.714,15.141 7.714,14.786 C7.714,14.431 8.002,14.143 8.357,14.143 L9.643,14.143 C9.998,14.143 10.286,14.431 10.286,14.786 C10.286,15.141 9.998,15.429 9.643,15.429 ZM9.643,12.857 L8.357,12.857 C8.002,12.857 7.714,12.569 7.714,12.214 C7.714,11.859 8.002,11.571 8.357,11.571 L9.643,11.571 C9.998,11.571 10.286,11.859 10.286,12.214 C10.286,12.569 9.998,12.857 9.643,12.857 ZM9.643,10.286 L8.357,10.286 C8.002,10.286 7.714,9.998 7.714,9.643 C7.714,9.288 8.002,9.000 8.357,9.000 L9.643,9.000 C9.998,9.000 10.286,9.288 10.286,9.643 C10.286,9.998 9.998,10.286 9.643,10.286 ZM5.143,15.429 L3.857,15.429 C3.502,15.429 3.214,15.141 3.214,14.786 C3.214,14.431 3.502,14.143 3.857,14.143 L5.143,14.143 C5.498,14.143 5.786,14.431 5.786,14.786 C5.786,15.141 5.498,15.429 5.143,15.429 ZM5.143,12.857 L3.857,12.857 C3.502,12.857 3.214,12.569 3.214,12.214 C3.214,11.859 3.502,11.571 3.857,11.571 L5.143,11.571 C5.498,11.571 5.786,11.859 5.786,12.214 C5.786,12.569 5.498,12.857 5.143,12.857 ZM5.143,10.286 L3.857,10.286 C3.502,10.286 3.214,9.998 3.214,9.643 C3.214,9.288 3.502,9.000 3.857,9.000 L5.143,9.000 C5.498,9.000 5.786,9.288 5.786,9.643 C5.786,9.998 5.498,10.286 5.143,10.286 ZM3.857,0.643 C3.857,0.288 4.145,0.000 4.500,0.000 C4.855,0.000 5.143,0.288 5.143,0.643 L5.143,1.929 L3.857,1.929 L3.857,0.643 ZM12.857,0.643 C12.857,0.288 13.145,0.000 13.500,0.000 C13.855,0.000 14.143,0.288 14.143,0.643 L14.143,1.929 L12.857,1.929 L12.857,0.643 Z"/>
</g>
</svg>